<?xml version="1.0" ?><svg width="28px" height="28px" viewBox="0 0 28 28" fill="none" xmlns="http://www.w3.org/2000/svg"><path clip-rule="evenodd" d="M11 4.54125C8.11878 5.68927 6.0772 8.44184 6.07706 11.6767V17.9802L3.31773 20.658C3.12222 20.8387 3 21.0961 3 21.3818V21.5114C3 22.6045 3.89543 23.4906 5 23.4906H10.0255C10.2508 25.4654 11.9443 27 14 27C16.0557 27 17.7492 25.4654 17.9745 23.4906H23C24.1046 23.4906 25 22.6045 25 21.5114V21.382C25.0001 21.0963 24.8779 20.8388 24.6823 20.658L21.9232 17.9805V12.8929C23.6873 12.4762 25 10.8914 25 9C25 6.79086 23.2091 5 21 5C20.2223 5 19.4964 5.22197 18.8822 5.60601C18.312 5.17165 17.6793 4.81179 17 4.54114V3.47401C17 2.18459 15.9963 1.54919 15.6019 1.354C15.0885 1.09988 14.5194 1 14 1C13.4806 1 12.9115 1.09988 12.3981 1.354C12.0037 1.54919 11 2.18459 11 3.47401V4.54125ZM17.5031 7.0564C16.5243 6.36044 15.3146 5.94802 14.0001 5.94802C10.7105 5.94802 8.07722 8.53096 8.07706 11.6767V18.3958C8.07706 18.6772 7.95901 18.9296 7.77028 19.1091L5.29484 21.5114H22.7052L20.5229 19.3936C20.1393 19.0214 19.9232 18.5121 19.9232 17.9805V12.8534C18.2371 12.3832 17 10.8361 17 9C17 8.29459 17.1826 7.63182 17.5031 7.0564ZM14.927 3.96881C14.9218 3.98589 14.9164 4.00272 14.9108 4.0193C14.6118 3.98595 14.308 3.96881 14.0001 3.96881C13.6922 3.96881 13.3883 3.98596 13.0893 4.01933C13.0836 4.00274 13.0782 3.9859 13.073 3.96881H13V3.47401C13 3.20076 13.4473 2.97921 14 2.97921C14.5527 2.97921 15 3.20076 15 3.47401V3.96881H14.927ZM12.0517 23.4906C12.2572 24.3674 13.0515 25.0208 14 25.0208C14.9485 25.0208 15.7428 24.3674 15.9483 23.4906H12.0517ZM19 9C19 7.89543 19.8954 7 21 7C22.1046 7 23 7.89543 23 9C23 10.1046 22.1046 11 21 11C19.8954 11 19 10.1046 19 9Z" fill="black" fill-rule="evenodd"/></svg>