<?xml version="1.0" ?><svg width="28px" height="28px" viewBox="0 0 28 28" fill="none" xmlns="http://www.w3.org/2000/svg"><path clip-rule="evenodd" d="M11 4.54125C8.11878 5.68927 6.0772 8.44184 6.07706 11.6767V17.9802L3.31773 20.658C3.12222 20.8387 3 21.0961 3 21.3818V21.5114C3 22.6045 3.89543 23.4906 5 23.4906H10.0255C10.2508 25.4654 11.9443 27 14 27C16.0557 27 17.7492 25.4654 17.9745 23.4906H23C24.1046 23.4906 25 22.6045 25 21.5114V21.382C25.0001 21.0963 24.8779 20.8388 24.6823 20.658L21.9232 17.9805V11.677C21.9231 8.44206 19.8814 5.6891 17 4.54114V3.47401C17 2.18459 15.9963 1.54919 15.6019 1.354C15.0885 1.09988 14.5194 1 14 1C13.4806 1 12.9115 1.09988 12.3981 1.354C12.0037 1.54919 11 2.18459 11 3.47401V4.54125ZM14.927 3.96881C14.9218 3.98589 14.9164 4.00272 14.9108 4.0193C14.6118 3.98595 14.308 3.96881 14.0001 3.96881C13.6922 3.96881 13.3883 3.98596 13.0893 4.01933C13.0836 4.00274 13.0782 3.9859 13.073 3.96881H13V3.47401C13 3.20076 13.4473 2.97921 14 2.97921C14.5527 2.97921 15 3.20076 15 3.47401V3.96881H14.927ZM15.9483 23.4906H12.0517C12.2572 24.3674 13.0515 25.0208 14 25.0208C14.9485 25.0208 15.7428 24.3674 15.9483 23.4906ZM8.07706 11.6767C8.07722 8.53096 10.7105 5.94802 14.0001 5.94802C17.2898 5.94802 19.9231 8.53096 19.9232 11.6767H8.07706ZM8.07706 11.6767H19.9232V17.9805C19.9232 18.5121 20.1393 19.0214 20.5229 19.3936L22.7052 21.5114H5.29484L7.77028 19.1091C7.95901 18.9296 8.07706 18.6772 8.07706 18.3958V11.6767Z" fill="black" fill-rule="evenodd"/></svg>